<?xml version="1.0" standalone="no"?>
<!DOCTYPE svg PUBLIC "-//W3C//DTD SVG 20010904//EN"
 "http://www.w3.org/TR/2001/REC-SVG-20010904/DTD/svg10.dtd">
<svg version="1.0" xmlns="http://www.w3.org/2000/svg"
 width="512.000000pt" height="512.000000pt" viewBox="0 0 512.000000 512.000000"
 preserveAspectRatio="xMidYMid meet">

<g transform="translate(0.000000,512.000000) scale(0.100000,-0.100000)"
fill="#000000" stroke="none">
<path d="M2290 4839 c-336 -38 -706 -174 -995 -367 -531 -353 -883 -893 -996
-1527 -27 -151 -37 -483 -20 -636 40 -346 161 -689 347 -985 38 -60 81 -131
96 -159 15 -27 28 -42 28 -32 0 16 11 17 137 15 l138 -3 7 -90 c17 -210 26
-276 38 -290 7 -9 14 -14 17 -12 2 2 10 91 18 197 9 107 16 194 18 195 1 0 46
-1 100 -3 l97 -4 0 -92 c0 -50 -9 -159 -21 -240 -11 -82 -19 -160 -17 -174 4
-38 25 -38 31 0 3 18 23 140 44 270 l37 238 152 0 151 0 12 -87 c6 -49 30
-198 52 -333 22 -135 44 -275 50 -312 7 -47 15 -68 25 -68 12 0 14 63 14 400
l0 400 221 0 c249 0 265 -4 300 -72 16 -32 19 -59 19 -193 0 -174 -8 -206 -60
-247 -27 -21 -31 -28 -21 -45 28 -54 111 -292 111 -320 0 -26 4 -33 20 -33 17
0 20 7 20 46 0 40 22 92 145 346 80 164 145 302 145 306 0 4 -63 6 -140 4
l-140 -3 0 105 0 106 265 0 265 0 0 -94 0 -93 -76 -159 c-42 -87 -105 -221
-139 -296 l-63 -138 144 0 144 0 0 -45 c0 -33 4 -45 15 -45 13 0 15 47 15 361
0 403 4 432 57 479 l34 30 179 0 178 0 33 -27 c56 -48 59 -65 59 -367 0 -268
6 -323 30 -261 6 15 10 156 10 341 l0 315 97 -3 97 -3 64 -195 c35 -107 67
-204 72 -215 5 -12 9 66 9 197 l1 217 96 3 c53 2 98 1 100 -1 2 -2 4 -68 4
-145 l1 -141 19 24 c17 20 20 39 20 142 l0 119 88 0 c116 0 129 5 143 48 7 20
41 84 77 142 185 299 303 636 343 979 17 153 7 485 -20 636 -96 536 -362 1007
-766 1353 -349 300 -791 493 -1240 542 -106 12 -428 11 -535 -1z m527 -304
c603 -79 1128 -418 1447 -935 159 -257 249 -512 281 -800 10 -89 11 -136 4
-140 -5 -4 -7 -15 -3 -25 5 -13 3 -16 -7 -13 -8 3 -13 13 -13 22 1 9 -5 16
-13 16 -8 0 -12 -4 -8 -9 3 -5 -8 -19 -24 -30 l-29 -21 9 36 c6 20 8 38 5 41
-2 3 -9 -12 -15 -32 -5 -20 -18 -44 -28 -52 -10 -8 -12 -11 -4 -7 11 5 13 3 8
-10 -5 -12 2 -10 27 9 42 32 43 31 38 -5 -5 -35 9 -39 38 -10 11 11 21 20 23
20 1 0 3 -47 5 -105 3 -90 1 -105 -12 -105 -15 0 -21 12 -17 33 1 5 -2 7 -6 5
-5 -2 -21 -10 -36 -18 -24 -12 -33 -12 -60 -1 -18 7 -59 19 -91 27 -32 7 -66
20 -75 29 -15 15 -15 16 2 9 9 -3 17 -1 17 4 0 17 -41 41 -58 35 -11 -5 -13
-3 -7 8 7 12 6 12 -7 1 -14 -11 -18 -10 -26 5 -6 10 -14 15 -18 11 -4 -4 -1
-14 5 -22 11 -13 8 -14 -16 -10 -27 4 -27 4 -8 -12 19 -16 19 -16 -10 -9 -16
4 -43 9 -58 11 -15 2 -37 8 -48 14 -10 6 -24 8 -29 5 -6 -3 -10 -2 -10 3 0 9
-37 20 -180 51 -47 11 -92 21 -100 23 -8 1 -20 8 -27 15 -7 6 -27 11 -45 12
-39 1 -41 1 -138 29 -171 50 -184 56 -196 93 -7 23 -27 45 -60 67 -27 19 -49
38 -49 42 0 5 -3 12 -7 16 -11 11 -10 24 3 24 6 0 17 6 25 14 7 8 19 16 25 18
8 3 6 21 -9 61 -12 31 -23 60 -24 65 -1 4 -8 6 -14 4 -7 -1 -15 2 -19 8 -5 8
-11 7 -21 -1 -8 -6 -14 -7 -14 -2 0 6 -14 10 -31 11 -23 0 -33 -4 -36 -19 -3
-10 -9 -19 -13 -19 -5 0 -14 -17 -21 -37 -6 -21 -20 -46 -30 -56 -18 -17 -19
-17 -19 18 0 24 -4 35 -15 35 -11 0 -15 -11 -15 -40 0 -43 -13 -52 -30 -21 -5
11 -19 22 -30 26 -16 5 -19 15 -19 53 1 44 3 47 30 49 16 1 39 8 51 14 13 7
33 14 45 15 13 1 47 22 77 45 l54 42 -56 34 c-67 40 -119 88 -128 117 -18 59
-56 127 -81 143 -15 10 -36 26 -45 36 -10 9 -27 17 -37 17 -27 0 -35 17 -32
66 3 47 -18 68 -55 58 -16 -4 -22 2 -31 29 -10 34 -9 37 28 73 22 21 39 42 39
46 0 5 15 22 33 38 17 16 27 30 22 30 -6 0 -30 -19 -54 -42 -24 -24 -49 -43
-55 -43 -6 -1 -10 -6 -9 -11 1 -7 -13 -9 -37 -7 -31 3 -38 1 -36 -12 1 -9 7
-20 13 -23 12 -8 27 -63 16 -61 -26 4 -42 -2 -37 -16 7 -18 34 -20 34 -3 0 6
3 9 6 5 3 -3 0 -22 -7 -41 -15 -42 -53 -51 -64 -15 -4 11 -9 18 -12 16 -10
-11 18 -46 39 -50 19 -4 19 -4 -5 -6 -23 -1 -31 5 -43 34 -7 19 -14 42 -14 50
0 9 -6 23 -14 31 -13 12 -14 10 -12 -13 2 -16 -1 -34 -6 -40 -6 -7 -7 -13 -2
-13 5 0 -16 -26 -46 -57 -46 -48 -41 -51 8 -5 32 29 23 8 -13 -28 -21 -21 -42
-37 -46 -34 -5 3 -20 -3 -34 -12 -50 -32 -34 -7 42 69 85 84 93 106 11 30 -28
-27 -53 -47 -57 -45 -6 2 -7 -1 -10 -30 0 -6 -3 -9 -6 -6 -3 3 -22 -10 -43
-29 -29 -27 -34 -36 -22 -43 16 -10 33 -3 25 10 -3 4 2 13 9 20 12 9 17 7 25
-8 8 -15 7 -23 -6 -33 -9 -8 -18 -13 -20 -11 -10 7 -22 0 -28 -17 -3 -11 -13
-22 -22 -26 -15 -5 -15 -4 0 13 27 29 20 35 -13 12 -21 -15 -39 -20 -58 -16
-28 6 -62 -12 -66 -36 -1 -7 -5 -19 -10 -26 -14 -22 21 -62 54 -62 20 0 30 5
30 15 0 9 9 15 24 15 13 0 30 2 38 5 9 3 27 -25 56 -84 36 -75 90 -151 107
-151 3 0 5 14 5 30 0 20 5 30 15 30 17 0 20 -11 6 -25 -17 -17 -31 -95 -17
-95 6 0 4 -5 -5 -10 -11 -6 -15 -18 -12 -35 4 -18 0 -27 -13 -31 -11 -4 -27
-14 -36 -22 -12 -10 -18 -11 -18 -4 0 14 -32 16 -46 2 -5 -5 -29 -11 -54 -14
-41 -5 -155 -21 -198 -28 -22 -4 -29 39 -9 55 18 14 24 52 14 82 -15 44 -24
146 -13 142 49 -19 56 -18 56 2 0 12 -6 21 -16 21 -8 0 -30 11 -47 24 -18 13
-48 27 -67 31 -26 5 -36 12 -37 26 -3 39 -24 87 -41 94 -34 14 -70 13 -88 0
-15 -12 -16 -16 -5 -24 9 -6 10 -11 2 -15 -6 -4 -9 -12 -5 -17 3 -6 -2 -17
-12 -25 -17 -14 -18 -15 -1 -10 14 5 16 2 8 -13 -6 -10 -8 -21 -5 -24 3 -3 6
-12 8 -20 1 -8 10 -22 20 -32 11 -11 16 -27 13 -42 -2 -12 0 -23 4 -23 5 0 9
5 9 12 0 8 3 8 9 3 10 -11 -9 -178 -21 -191 -11 -10 -10 64 0 101 10 33 5 58
-9 49 -5 -3 -9 0 -9 5 0 6 -4 11 -10 11 -5 0 -10 -13 -10 -30 0 -19 -5 -30
-14 -30 -7 0 -19 -7 -26 -15 -7 -8 -17 -12 -23 -8 -5 3 -7 1 -4 -4 4 -6 -1
-17 -10 -24 -12 -10 -14 -10 -9 -1 10 16 -5 15 -30 -3 -12 -8 -24 -11 -28 -7
-4 3 -4 -2 0 -12 5 -13 4 -17 -3 -13 -6 4 -14 -4 -17 -18 -4 -14 -11 -25 -16
-25 -6 0 -10 -4 -10 -10 0 -5 7 -10 16 -10 9 0 18 -9 21 -20 3 -11 13 -19 22
-18 9 1 37 0 64 0 38 -2 47 -5 47 -20 0 -10 5 -23 10 -28 13 -13 70 -5 71 10
1 6 4 -2 8 -19 4 -16 11 -29 17 -29 5 1 25 5 44 8 l35 6 -39 -15 c-21 -8 -42
-13 -46 -10 -4 2 -31 -5 -60 -16 -41 -16 -51 -17 -41 -5 11 13 5 13 -41 -1
-29 -9 -62 -20 -74 -25 -11 -5 -31 -11 -45 -12 -13 -1 -55 -13 -92 -25 -38
-13 -79 -21 -92 -18 -14 2 -26 0 -27 -4 -4 -10 -194 -59 -230 -59 -27 0 -28 2
-28 49 0 40 -4 53 -22 66 -23 15 -23 15 -29 -37 -6 -56 -9 -55 -15 1 -6 48
-14 52 -14 7 0 -21 -4 -35 -10 -31 -5 3 -7 19 -3 35 3 17 3 30 0 30 -19 0 -37
-15 -37 -31 0 -10 -2 -19 -5 -19 -10 0 -115 62 -121 71 -14 24 -24 4 -24 -50
0 -33 -4 -63 -10 -66 -6 -4 -10 15 -10 49 0 48 -2 54 -17 49 -10 -4 -14 -2 -9
5 3 6 -3 16 -14 22 -19 10 -20 8 -22 -32 0 -24 -1 -49 -1 -55 1 -19 -14 -16
-114 23 -108 41 -102 25 -78 208 118 898 850 1613 1755 1715 125 14 352 12
477 -4z m-291 -992 c-11 -11 -17 4 -9 23 7 18 8 18 11 1 2 -10 1 -21 -2 -24z
m14 -26 c0 -11 -40 -34 -45 -27 -4 6 4 14 17 19 28 12 28 12 28 8z m-34 -52
c17 -13 17 -14 2 -15 -10 0 -21 -1 -25 -2 -3 -2 -7 5 -9 15 -3 21 6 22 32 2z
m289 -45 c3 -5 2 -10 -4 -10 -5 0 -13 5 -16 10 -3 6 -2 10 4 10 5 0 13 -4 16
-10z m-286 -89 c12 -8 9 -11 -12 -16 -15 -4 -24 -12 -21 -19 3 -6 0 -4 -8 4
-14 17 -48 15 -61 -4 -5 -7 -7 -3 -5 9 3 15 11 20 35 21 18 0 36 3 39 7 9 9
16 9 33 -2z m-108 -92 c-6 -16 -10 -18 -10 -7 -1 22 12 55 16 42 2 -6 -1 -22
-6 -35z m18 -71 c1 -5 -5 -8 -13 -8 -9 0 -12 8 -8 27 5 25 6 25 13 8 4 -11 8
-23 8 -27z m-579 -4 c0 -8 -4 -12 -10 -9 -5 3 -10 10 -10 16 0 5 5 9 10 9 6 0
10 -7 10 -16z m697 -136 c-3 -8 -6 -5 -6 6 -1 11 2 17 5 13 3 -3 4 -12 1 -19z
m36 2 c3 -11 1 -20 -4 -20 -5 0 -9 9 -9 20 0 11 2 20 4 20 2 0 6 -9 9 -20z
m507 -34 c0 -8 3 -16 8 -19 4 -2 1 -2 -5 -1 -7 2 -13 2 -13 0 0 -3 -3 -13 -7
-23 -6 -16 -5 -16 10 -4 11 9 17 10 17 2 0 -6 9 -11 20 -11 17 0 19 -2 8 -14
-11 -11 -15 -11 -25 3 -8 10 -12 11 -13 4 0 -7 -7 -10 -15 -7 -10 4 -15 0 -15
-15 0 -12 -4 -21 -10 -21 -5 0 -8 6 -6 13 2 6 10 33 16 60 12 44 30 64 30 33z
m-1322 -104 c7 -5 10 -16 6 -25 -5 -14 0 -15 33 -11 30 4 34 3 21 -5 -18 -12
-148 -22 -148 -12 0 7 62 60 70 61 3 0 11 -4 18 -8z m1102 -19 c-1 -25 -14
-53 -26 -53 -8 0 -14 4 -14 9 0 5 -3 16 -6 24 -3 10 2 17 13 20 29 8 33 7 33
0z m-430 -34 c0 -5 -7 -9 -15 -9 -9 0 -12 6 -9 15 6 15 24 11 24 -6z m206 -37
c-9 -8 -36 13 -36 27 0 31 15 33 27 4 6 -15 10 -29 9 -31z m321 4 c-4 -9 -13
-13 -22 -10 -12 5 -13 9 -4 20 9 11 9 14 0 14 -6 0 -14 -6 -17 -14 -7 -17 -34
-10 -34 9 0 6 10 17 23 22 17 9 26 7 41 -7 11 -10 16 -25 13 -34z m135 22
c-15 -15 -26 -4 -18 18 5 13 9 15 18 6 9 -9 9 -15 0 -24z m-712 11 c0 -5 -11
-9 -25 -9 -33 0 -33 15 0 16 14 1 25 -2 25 -7z m-80 -19 c0 -5 -12 -10 -27 -9
-25 0 -26 1 -8 9 27 12 35 12 35 0z m457 -22 c-3 -8 -6 -5 -6 6 -1 11 2 17 5
13 3 -3 4 -12 1 -19z m67 16 c9 -3 16 -10 16 -15 0 -14 -34 -11 -56 6 -19 14
-19 14 3 15 12 0 28 -3 37 -6z m293 -10 c-3 -3 -12 -4 -19 -1 -8 3 -5 6 6 6
11 1 17 -2 13 -5z m-7 -24 c0 -5 -5 -10 -11 -10 -5 0 -7 5 -4 10 3 6 8 10 11
10 2 0 4 -4 4 -10z m-760 -14 c0 -3 -4 -8 -10 -11 -5 -3 -10 -1 -10 4 0 6 5
11 10 11 6 0 10 -2 10 -4z m-285 -76 c-12 -19 -22 -10 -17 16 4 22 6 24 14 10
5 -9 6 -21 3 -26z m889 4 c3 -9 5 -32 5 -52 -2 -33 -2 -34 -6 -8 -3 16 -11 35
-19 43 -8 8 -12 19 -9 24 9 14 22 11 29 -7z m-1004 -44 c-8 -5 -19 -10 -25
-10 -5 0 -3 5 5 10 8 5 20 10 25 10 6 0 3 -5 -5 -10z m1057 4 c-3 -3 -12 -4
-19 -1 -8 3 -5 6 6 6 11 1 17 -2 13 -5z m-2382 -35 c22 -10 29 -16 15 -13 -28
7 -80 33 -65 33 6 0 28 -9 50 -20z m1275 7 c0 -2 -8 -10 -17 -17 -16 -13 -17
-12 -4 4 13 16 21 21 21 13z m1020 -16 c12 -12 24 -19 28 -16 5 3 14 -4 21
-16 9 -14 9 -18 1 -13 -9 6 -9 2 0 -15 7 -14 8 -26 2 -32 -12 -12 -3 -58 14
-65 8 -3 14 -13 14 -23 0 -11 5 -22 10 -25 6 -4 8 -11 5 -16 -4 -5 -1 -9 4 -9
6 0 11 -4 11 -10 0 -5 -6 -10 -14 -10 -15 0 -30 -27 -27 -48 1 -9 -4 -12 -16
-9 -10 3 -37 9 -60 12 -26 4 -43 12 -43 20 0 7 -6 16 -12 18 -10 4 -10 7 -1
14 9 7 10 18 2 46 -5 21 -7 46 -4 57 3 11 -1 40 -10 66 -17 51 -14 64 10 44
21 -17 32 -4 17 20 -9 14 -9 20 1 23 21 9 27 7 47 -13z m108 13 c-10 -2 -28
-2 -40 0 -13 2 -5 4 17 4 22 1 32 -1 23 -4z m79 -9 c-3 -3 -12 -4 -19 -1 -8 3
-5 6 6 6 11 1 17 -2 13 -5z m-1316 -40 c-23 -20 -40 -39 -37 -42 3 -2 12 1 21
8 9 7 18 10 21 7 3 -3 -23 -19 -58 -35 -46 -22 -76 -30 -110 -29 -53 2 -71 -9
-45 -27 23 -18 22 -29 -3 -21 -15 5 -18 3 -14 -8 3 -10 -4 -17 -20 -21 -15 -4
-26 -14 -26 -22 0 -13 -7 -15 -30 -10 -23 4 -30 2 -30 -10 0 -12 -4 -13 -20
-4 -11 6 -20 7 -20 2 0 -12 -33 -11 -41 1 -4 5 -14 5 -26 -1 -11 -6 -24 -7
-29 -3 -5 5 -32 16 -61 26 -29 10 -54 24 -57 31 -6 14 11 20 279 89 99 26 194
54 212 62 25 12 99 35 132 42 3 1 -14 -15 -38 -35z m1212 19 c-7 -2 -19 -2
-25 0 -7 3 -2 5 12 5 14 0 19 -2 13 -5z m-2273 -13 c8 -5 11 -10 5 -10 -5 0
-17 5 -25 10 -8 5 -10 10 -5 10 6 0 17 -5 25 -10z m2576 -11 c10 -12 39 -31
64 -42 50 -22 40 -34 -18 -21 -20 4 -44 8 -52 9 -9 0 -17 14 -21 38 -7 42 0
46 27 16z m-1018 -25 c-3 -14 -5 -12 -10 9 -3 19 -2 25 4 19 6 -6 8 -18 6 -28z
m-1478 4 c10 -6 7 -7 -10 -2 -14 3 -32 11 -40 16 -10 6 -7 7 10 2 14 -3 32
-11 40 -16z m1830 3 c0 -5 -7 -12 -16 -15 -14 -5 -15 -4 -4 9 14 17 20 19 20
6z m1035 -66 c207 -55 309 -86 319 -95 7 -5 15 -7 19 -4 3 3 100 -19 216 -50
116 -31 214 -56 218 -56 4 0 -2 -7 -13 -16 -16 -13 -16 -15 -2 -10 19 6 34 -9
18 -19 -5 -3 -10 -11 -10 -18 0 -8 3 -8 12 1 7 7 17 12 23 12 5 0 2 -5 -7 -11
-25 -14 -24 -43 2 -36 28 7 25 -9 -2 -18 -44 -14 -108 -13 -108 1 0 8 5 14 11
14 5 0 7 -4 4 -10 -3 -5 7 -2 24 8 18 10 25 19 18 24 -7 4 -7 12 4 24 13 16
11 17 -21 10 -19 -3 -39 -11 -45 -18 -7 -8 -6 -9 3 -4 6 4 12 3 12 -2 0 -14
-131 -7 -140 8 -4 7 -16 9 -28 6 -14 -5 -21 -1 -25 14 -7 26 -47 27 -54 1 -4
-15 -14 -19 -54 -19 -35 0 -49 4 -49 14 0 8 -7 14 -15 14 -8 0 -15 4 -15 9 0
15 -41 24 -53 12 -15 -15 -28 -14 -25 1 5 25 -43 20 -69 -6 -14 -14 -22 -26
-18 -26 4 0 3 -6 -3 -13 -6 -7 -14 -32 -18 -55 -6 -39 -9 -42 -38 -42 -41 0
-51 9 -53 45 -5 70 -18 130 -25 113 -4 -10 -5 -25 -2 -33 4 -8 1 -15 -5 -15
-6 0 -11 -6 -11 -12 -1 -7 -9 -30 -19 -51 -16 -34 -19 -36 -26 -20 -5 10 -10
25 -11 33 -2 8 -9 38 -18 65 -13 45 -14 47 -17 20 -1 -16 -3 -35 -3 -42 -1 -6
-5 -15 -9 -19 -4 -4 -7 -14 -7 -23 0 -31 -14 -41 -45 -33 -33 9 -38 36 -16 90
13 30 12 45 -2 197 -1 17 -15 47 -31 67 l-28 37 94 -25 c51 -14 116 -31 143
-39z m-1375 31 c0 -3 -4 -8 -10 -11 -5 -3 -10 -1 -10 4 0 6 5 11 10 11 6 0 10
-2 10 -4z m-1243 -12 c-3 -3 -12 -4 -19 -1 -8 3 -5 6 6 6 11 1 17 -2 13 -5z
m133 -14 c0 -5 -2 -10 -4 -10 -3 0 -8 5 -11 10 -3 6 -1 10 4 10 6 0 11 -4 11
-10z m-213 -6 c-3 -3 -12 -4 -19 -1 -8 3 -5 6 6 6 11 1 17 -2 13 -5z m2423
-25 c-7 -11 -14 -19 -16 -16 -7 7 7 37 17 37 6 0 5 -9 -1 -21z m830 11 c0 -13
-20 -13 -40 0 -12 8 -9 10 13 10 15 0 27 -4 27 -10z m-1803 -55 c2 -55 2 -55
-28 -55 -17 0 -39 -5 -49 -10 -17 -9 -19 -6 -18 41 0 43 3 51 23 59 13 5 32 6
44 3 12 -3 21 -1 21 6 0 6 1 11 3 11 1 0 3 -25 4 -55z m271 9 c3 -37 0 -42
-21 -46 -44 -8 -67 8 -67 46 0 38 10 46 55 43 28 -2 30 -5 33 -43z m672 33 c0
-14 -39 -41 -47 -33 -3 3 2 8 11 12 9 3 16 12 16 20 0 8 5 14 10 14 6 0 10 -6
10 -13z m-1127 -18 c4 -16 3 -18 -9 -8 -7 6 -11 15 -8 20 8 13 11 11 17 -12z
m54 -21 c-3 -7 -5 -2 -5 12 0 14 2 19 5 13 2 -7 2 -19 0 -25z m-64 -71 c-3 -6
-1 -7 5 -3 6 3 16 -2 21 -13 16 -29 13 -41 -7 -41 -13 0 -23 15 -36 50 -10 28
-22 50 -26 50 -4 0 -11 8 -15 18 -3 9 9 2 29 -17 19 -19 32 -39 29 -44z m2004
31 c-3 -8 -6 -5 -6 6 -1 11 2 17 5 13 3 -3 4 -12 1 -19z m-2347 -8 c0 -3 -9
-11 -20 -18 -25 -15 -45 -7 -28 11 11 13 48 18 48 7z m206 -118 c-65 -20 -120
-27 -112 -14 8 13 -63 4 -81 -11 -7 -5 -13 -6 -13 -2 0 5 -10 0 -22 -11 -13
-10 17 23 67 74 l90 92 56 -58 57 -57 -42 -13z m1291 19 c2 -86 -1 -112 -12
-121 -11 -9 -15 -10 -15 -1 0 7 -4 10 -9 7 -5 -4 -11 -1 -13 5 -2 5 -18 11
-36 11 -30 1 -47 17 -19 19 6 0 3 4 -8 8 -12 5 -26 4 -34 -3 -12 -9 -12 -7 -2
12 12 22 11 23 -8 13 -14 -8 -22 -8 -27 1 -5 8 -10 6 -15 -8 -7 -16 -8 -15 -8
7 -1 15 -7 32 -15 38 -10 8 -12 21 -6 47 5 20 11 38 14 42 4 3 37 6 74 7 37 1
76 7 87 13 46 27 50 19 52 -97z m1044 73 c12 -14 11 -16 -5 -13 -11 2 -21 10
-24 17 -5 17 13 15 29 -4z m-3191 -49 c-7 -8 -20 -15 -28 -15 -13 0 -12 3 4
15 25 19 40 19 24 0z m1277 9 c-3 -3 -12 -4 -19 -1 -8 3 -5 6 6 6 11 1 17 -2
13 -5z m-1357 -65 c0 -6 -4 -7 -10 -4 -5 3 -10 11 -10 16 0 6 5 7 10 4 6 -3
10 -11 10 -16z m-80 -23 c-8 -8 -26 -17 -40 -20 -19 -5 -17 -2 10 13 42 24 49
26 30 7z m-105 -56 c-3 -5 -11 -10 -16 -10 -6 0 -7 5 -4 10 3 6 11 10 16 10 6
0 7 -4 4 -10z m3405 -40 c0 -5 -2 -10 -4 -10 -3 0 -8 5 -11 10 -3 6 -1 10 4
10 6 0 11 -4 11 -10z m83 3 c3 -5 -8 -9 -24 -10 -16 -1 -29 2 -29 7 0 12 47
13 53 3z m-2577 -664 c18 -17 24 -33 24 -66 l0 -43 -40 0 c-40 0 -40 0 -40 39
0 42 -16 63 -31 40 -11 -16 -6 -185 5 -196 11 -11 26 18 26 50 0 25 3 27 40
27 39 0 40 -1 40 -34 0 -22 -9 -45 -24 -63 -21 -24 -32 -28 -76 -28 -44 0 -55
4 -76 28 -22 26 -24 37 -24 126 0 88 2 99 23 118 12 11 29 23 37 26 29 12 92
-1 116 -24z m198 -6 c3 -16 12 -71 21 -123 8 -52 18 -105 20 -117 5 -21 2 -23
-40 -23 -42 0 -45 2 -45 26 0 33 -33 30 -38 -4 -3 -19 -9 -22 -48 -22 -39 0
-45 3 -40 18 3 9 13 69 21 132 9 63 18 121 20 128 3 8 25 12 64 12 57 0 60 -1
65 -27z m146 -88 l0 -115 25 0 c21 0 25 -5 25 -30 l0 -30 -70 0 -70 0 0 145 0
145 45 0 45 0 0 -115z m150 1 l0 -115 27 -3 c22 -2 28 -8 28 -28 0 -24 -3 -25
-68 -28 l-67 -3 0 146 0 145 40 0 40 0 0 -114z m333 95 c14 -11 17 -34 17
-127 0 -143 -1 -144 -116 -144 l-84 0 0 146 0 146 83 -3 c52 -3 90 -9 100 -18z
m137 -96 c0 -70 4 -115 10 -115 6 0 10 45 10 115 l0 115 40 0 40 0 2 -72 c6
-196 -5 -223 -91 -223 -38 0 -55 5 -75 24 -25 24 -26 28 -26 148 l0 123 45 0
45 0 0 -115z m308 88 c-2 -20 -9 -29 -25 -31 -22 -3 -23 -7 -23 -118 l0 -114
-45 0 -45 0 0 115 0 115 -25 0 c-21 0 -25 5 -25 30 l0 30 96 0 95 0 -3 -27z
m100 -25 l9 -53 7 40 c12 64 13 65 55 65 l40 0 -30 -87 c-19 -57 -29 -107 -29
-145 l0 -58 -40 0 -40 0 0 48 c0 26 -14 90 -30 142 -16 52 -30 96 -30 98 0 1
18 2 39 2 l39 0 10 -52z m-800 -65 c-3 -40 -6 -48 -23 -48 -15 0 -21 8 -23 33
-5 45 3 62 28 62 19 0 21 -5 18 -47z m47 7 c-7 -76 -35 -84 -35 -10 0 43 3 50
19 50 17 0 19 -6 16 -40z m930 -75 c30 -29 32 -58 5 -85 -28 -28 -64 -25 -89
7 -24 30 -20 58 11 86 27 23 44 22 73 -8z"/>
<path d="M2562 3737 c-12 -14 -4 -31 16 -34 6 -2 12 4 12 12 0 8 -5 15 -11 15
-5 0 -7 5 -4 10 9 14 -1 12 -13 -3z"/>
<path d="M2544 3639 c-10 -17 13 -36 27 -22 12 12 4 33 -11 33 -5 0 -12 -5
-16 -11z"/>
<path d="M2580 3606 c0 -9 7 -16 16 -16 9 0 14 5 12 12 -6 18 -28 21 -28 4z"/>
<path d="M1520 2759 c-84 -91 -124 -129 -136 -129 -11 0 -28 -29 -22 -36 2 -1
26 17 53 41 27 24 51 42 54 40 2 -3 27 15 55 40 28 25 59 52 68 60 18 15 14
45 -6 45 -6 -1 -36 -28 -66 -61z"/>
<path d="M1380 2660 c-8 -5 -11 -12 -7 -16 4 -4 13 -2 19 4 15 15 7 24 -12 12z"/>
<path d="M4347 2597 c-3 -7 3 -13 13 -13 10 0 16 6 13 13 -3 7 -9 13 -13 13
-4 0 -10 -6 -13 -13z"/>
<path d="M4215 2590 c3 -5 8 -10 11 -10 2 0 4 5 4 10 0 6 -5 10 -11 10 -5 0
-7 -4 -4 -10z"/>
<path d="M3997 2343 c6 -16 8 -16 23 1 9 12 8 15 -8 13 -12 0 -18 -6 -15 -14z"/>
<path d="M4181 2311 c-13 -11 -29 -17 -37 -14 -8 3 -14 0 -14 -7 0 -9 10 -11
31 -6 17 3 38 6 46 6 12 0 13 3 4 14 -10 11 -8 15 6 19 14 4 15 5 2 6 -9 0
-26 -8 -38 -18z"/>
<path d="M2010 1340 c0 -27 5 -50 10 -50 6 0 10 23 10 50 0 28 -4 50 -10 50
-5 0 -10 -22 -10 -50z"/>
<path d="M2620 1335 c0 -52 4 -95 9 -95 21 0 26 57 15 144 -11 78 -24 51 -24
-49z"/>
<path d="M2432 1360 c0 -19 2 -27 5 -17 2 9 2 25 0 35 -3 9 -5 1 -5 -18z"/>
<path d="M3362 1288 c-28 -28 -3 -88 37 -88 25 0 41 20 41 50 0 31 -17 50 -45
50 -12 0 -26 -5 -33 -12z m54 -36 c1 -27 -1 -30 -12 -21 -10 8 -14 8 -14 0 0
-6 -4 -11 -10 -11 -11 0 -14 53 -3 64 17 16 37 -1 39 -32z"/>
<path d="M3390 1270 c0 -5 5 -10 11 -10 5 0 7 5 4 10 -3 6 -8 10 -11 10 -2 0
-4 -4 -4 -10z"/>
<path d="M2080 965 c0 0 -1 -55 -3 -123 l-2 -123 45 3 45 3 3 118 c1 64 -1
117 -5 118 -6 0 -79 4 -83 4z"/>
<path d="M3265 950 c-4 -6 -3 -145 1 -310 7 -321 6 -312 58 -289 35 16 37 46
34 349 l-3 255 -42 3 c-22 2 -44 -2 -48 -8z"/>
<path d="M1541 835 c-1 -16 -8 -85 -14 -152 l-13 -123 31 0 31 0 -13 138 c-13
147 -20 185 -22 137z"/>
<path d="M2080 407 l0 -134 47 -7 c25 -3 48 -4 50 -2 7 6 -77 265 -88 271 -5
4 -9 -47 -9 -128z"/>
</g>
</svg>
